<svg width="225" height="60" viewBox="0 0 225 60" fill="none" xmlns="http://www.w3.org/2000/svg">
<path d="M10.2919 10.0842L48.0436 10.0842C49.7123 10.0842 51.3127 10.7471 52.4926 11.9271C53.6726 13.1071 54.3355 14.7074 54.3355 16.3762L54.3355 44.6899C54.3355 45.5243 54.0041 46.3244 53.4141 46.9144C52.8241 47.5044 52.0239 47.8359 51.1895 47.8359H44.8976C44.0632 47.8359 43.2631 47.5044 42.6731 46.9144C42.0831 46.3244 41.7516 45.5243 41.7516 44.6899V38.398C41.7516 35.0605 40.4258 31.8597 38.0659 29.4998C35.706 27.1399 32.5052 25.8141 29.1678 25.8141C25.8303 25.8141 22.6295 27.1399 20.2696 29.4998C17.9097 31.8597 16.5839 35.0605 16.5839 38.398V44.6899C16.5839 45.5243 16.2524 46.3244 15.6624 46.9144C15.0725 47.5044 14.2723 47.8359 13.4379 47.8359H7.14597C6.31161 47.8359 5.51142 47.5044 4.92143 46.9144C4.33145 46.3244 4 45.5243 4 44.6899L4 16.3762C4 14.7074 4.6629 13.1071 5.84287 11.9271C7.02283 10.7471 8.62321 10.0842 10.2919 10.0842Z" fill="white"/>
<path d="M10.2919 10.0842L48.0436 10.0842C49.7123 10.0842 51.3127 10.7471 52.4927 11.9271C53.6726 13.1071 54.3355 14.7074 54.3355 16.3762L54.3355 44.6899C54.3355 45.5243 54.0041 46.3244 53.4141 46.9144C52.8241 47.5044 52.0239 47.8359 51.1895 47.8359H44.8976C44.0632 47.8359 43.2631 47.5044 42.6731 46.9144C42.0831 46.3244 41.7516 45.5243 41.7516 44.6899V38.398C41.7516 35.0605 40.4258 31.8597 38.0659 29.4998C35.706 27.1399 32.5052 25.8141 29.1678 25.8141C25.8303 25.8141 22.6295 27.1399 20.2696 29.4998C17.9097 31.8597 16.5839 35.0605 16.5839 38.398V44.6899C16.5839 45.5243 16.2524 46.3244 15.6624 46.9144C15.0725 47.5044 14.2723 47.8359 13.4379 47.8359H7.14597C6.31161 47.8359 5.51142 47.5044 4.92143 46.9144C4.33145 46.3244 4 45.5243 4 44.6899L4 16.3762C4 14.7074 4.6629 13.1071 5.84287 11.9271C7.02283 10.7471 8.62321 10.0842 10.2919 10.0842" stroke="white" stroke-width="7.11549" stroke-linecap="round" stroke-linejoin="round"/>
<path d="M70.1111 48V12.2387H84.4296C87.0604 12.2387 89.2548 12.6287 91.0126 13.4087C92.7704 14.1886 94.0916 15.2712 94.9763 16.6565C95.8611 18.0302 96.3034 19.6133 96.3034 21.4061C96.3034 22.803 96.024 24.0311 95.4653 25.0904C94.9065 26.1381 94.1382 26.9996 93.1603 27.6748C92.1941 28.3383 91.0882 28.8098 89.8426 29.0891V29.4384C91.2046 29.4966 92.4793 29.8807 93.6667 30.5908C94.8657 31.3009 95.8378 32.2962 96.5828 33.5768C97.3278 34.8456 97.7003 36.359 97.7003 38.1168C97.7003 40.0143 97.2289 41.708 96.286 43.1981C95.3547 44.6765 93.9752 45.8464 92.1476 46.7078C90.3199 47.5693 88.0674 48 85.3899 48H70.1111ZM77.6719 41.8186H83.8359C85.9429 41.8186 87.4795 41.417 88.4457 40.6138C89.4119 39.7989 89.895 38.7163 89.895 37.3659C89.895 36.3764 89.6564 35.5033 89.1791 34.7467C88.7018 33.99 88.0208 33.3963 87.1361 32.9656C86.263 32.5349 85.2211 32.3195 84.0105 32.3195H77.6719V41.8186ZM77.6719 27.2033H83.2771C84.3131 27.2033 85.2328 27.0229 86.036 26.662C86.8509 26.2895 87.4912 25.7656 87.9568 25.0904C88.4341 24.4153 88.6727 23.6062 88.6727 22.6633C88.6727 21.3711 88.2129 20.3293 87.2933 19.5377C86.3853 18.7461 85.0931 18.3503 83.4168 18.3503H77.6719V27.2033ZM102.48 48V21.1791H109.692V25.8588H109.971C110.46 24.1941 111.281 22.9369 112.434 22.0871C113.586 21.2256 114.913 20.7949 116.415 20.7949C116.787 20.7949 117.189 20.8182 117.62 20.8647C118.05 20.9113 118.429 20.9753 118.755 21.0568V27.6573C118.405 27.5525 117.922 27.4594 117.305 27.3779C116.688 27.2964 116.124 27.2557 115.612 27.2557C114.517 27.2557 113.539 27.4943 112.678 27.9716C111.828 28.4372 111.153 29.0891 110.652 29.9273C110.164 30.7654 109.919 31.7317 109.919 32.8259V48H102.48ZM122.601 48V21.1791H130.039V48H122.601ZM126.337 17.7217C125.231 17.7217 124.283 17.355 123.491 16.6216C122.711 15.8766 122.321 14.986 122.321 13.95C122.321 12.9256 122.711 12.0467 123.491 11.3133C124.283 10.5683 125.231 10.1957 126.337 10.1957C127.443 10.1957 128.386 10.5683 129.166 11.3133C129.958 12.0467 130.353 12.9256 130.353 13.95C130.353 14.986 129.958 15.8766 129.166 16.6216C128.386 17.355 127.443 17.7217 126.337 17.7217ZM145.881 48.4365C143.844 48.4365 141.999 47.9127 140.346 46.865C138.704 45.8057 137.401 44.2516 136.434 42.2028C135.48 40.1423 135.003 37.6162 135.003 34.6245C135.003 31.5512 135.497 28.996 136.487 26.9588C137.476 24.91 138.792 23.3792 140.433 22.3664C142.086 21.342 143.896 20.8298 145.864 20.8298C147.365 20.8298 148.617 21.0859 149.618 21.5981C150.631 22.0987 151.446 22.7273 152.063 23.484C152.691 24.229 153.168 24.9624 153.494 25.6841H153.721V12.2387H161.143V48H153.809V43.7045H153.494C153.145 44.4495 152.65 45.1887 152.01 45.9221C151.382 46.6438 150.561 47.2433 149.548 47.7206C148.547 48.1979 147.325 48.4365 145.881 48.4365ZM148.238 42.5171C149.437 42.5171 150.45 42.1911 151.277 41.5392C152.115 40.8757 152.755 39.9502 153.198 38.7628C153.652 37.5755 153.879 36.1843 153.879 34.5895C153.879 32.9947 153.657 31.6094 153.215 30.4337C152.773 29.2579 152.132 28.3499 151.294 27.7097C150.456 27.0694 149.437 26.7493 148.238 26.7493C147.016 26.7493 145.986 27.0811 145.148 27.7446C144.31 28.4081 143.675 29.3278 143.244 30.5035C142.814 31.6793 142.598 33.0413 142.598 34.5895C142.598 36.1494 142.814 37.5289 143.244 38.7279C143.687 39.9153 144.321 40.8466 145.148 41.5218C145.986 42.1853 147.016 42.5171 148.238 42.5171ZM179.342 58.6166C176.932 58.6166 174.866 58.2849 173.143 57.6213C171.432 56.9694 170.07 56.0789 169.057 54.9497C168.044 53.8205 167.386 52.5516 167.084 51.1431L173.964 50.2176C174.173 50.7531 174.505 51.2537 174.959 51.7193C175.413 52.185 176.012 52.5575 176.758 52.8368C177.514 53.1279 178.434 53.2734 179.516 53.2734C181.135 53.2734 182.467 52.8776 183.515 52.086C184.574 51.3061 185.104 49.9964 185.104 48.1572V43.2505H184.79C184.464 43.9955 183.975 44.6998 183.323 45.3633C182.671 46.0268 181.833 46.5682 180.809 46.9872C179.784 47.4063 178.562 47.6158 177.142 47.6158C175.128 47.6158 173.294 47.1502 171.641 46.2189C170 45.276 168.69 43.8383 167.712 41.9059C166.746 39.9619 166.263 37.5056 166.263 34.5371C166.263 31.4988 166.758 28.9611 167.747 26.9239C168.737 24.8867 170.052 23.3617 171.694 22.349C173.347 21.3362 175.157 20.8298 177.124 20.8298C178.626 20.8298 179.883 21.0859 180.896 21.5981C181.909 22.0987 182.724 22.7273 183.341 23.484C183.969 24.229 184.452 24.9624 184.79 25.6841H185.069V21.1791H192.455V48.2619C192.455 50.5436 191.897 52.4527 190.779 53.9893C189.662 55.5259 188.113 56.6784 186.134 57.4467C184.167 58.2266 181.903 58.6166 179.342 58.6166ZM179.499 42.0281C180.698 42.0281 181.711 41.7313 182.537 41.1376C183.375 40.5323 184.016 39.6708 184.458 38.5533C184.912 37.4241 185.139 36.0738 185.139 34.5022C185.139 32.9307 184.918 31.5687 184.476 30.4162C184.033 29.2521 183.393 28.3499 182.555 27.7097C181.717 27.0694 180.698 26.7493 179.499 26.7493C178.277 26.7493 177.246 27.0811 176.408 27.7446C175.57 28.3965 174.936 29.3045 174.505 30.4686C174.074 31.6327 173.859 32.9772 173.859 34.5022C173.859 36.0505 174.074 37.3892 174.505 38.5184C174.947 39.6359 175.582 40.5032 176.408 41.1201C177.246 41.7255 178.277 42.0281 179.499 42.0281ZM210.598 48.5238C207.839 48.5238 205.464 47.9651 203.474 46.8475C201.495 45.7184 199.97 44.1235 198.899 42.0631C197.828 39.991 197.292 37.5405 197.292 34.7118C197.292 31.9528 197.828 29.5315 198.899 27.4478C199.97 25.364 201.477 23.7401 203.421 22.576C205.377 21.4119 207.67 20.8298 210.301 20.8298C212.071 20.8298 213.718 21.115 215.243 21.6854C216.779 22.2442 218.118 23.0882 219.259 24.2174C220.411 25.3465 221.308 26.7668 221.948 28.478C222.588 30.1776 222.908 32.1682 222.908 34.4498V36.4928H200.261V31.883H215.906C215.906 30.812 215.673 29.8633 215.208 29.0368C214.742 28.2102 214.096 27.5642 213.27 27.0985C212.455 26.6212 211.506 26.3826 210.423 26.3826C209.294 26.3826 208.293 26.6445 207.42 27.1684C206.559 27.6806 205.883 28.3732 205.394 29.2463C204.906 30.1077 204.655 31.0681 204.644 32.1274V36.5103C204.644 37.8374 204.888 38.984 205.377 39.9502C205.878 40.9164 206.582 41.6615 207.49 42.1853C208.398 42.7091 209.475 42.9711 210.72 42.9711C211.547 42.9711 212.303 42.8547 212.99 42.6218C213.677 42.389 214.265 42.0398 214.754 41.5741C215.243 41.1085 215.615 40.5381 215.871 39.8629L222.751 40.3169C222.402 41.9699 221.686 43.4134 220.603 44.6474C219.532 45.8697 218.147 46.8243 216.448 47.5111C214.76 48.1863 212.81 48.5238 210.598 48.5238Z" fill="white"/>
</svg>
